<svg width="25" height="40" viewBox="0 0 25 40" style="background-color: white" fill="none" xmlns="http://www.w3.org/2000/svg">
<path d="M18.5752 12.675C17.3877 12.05 16.0877 11.6125 14.7252 11.3625C13.8502 11.2 12.9502 11.125 12.0377 11.125H11.9877C11.0877 11.125 10.1877 11.2 9.3002 11.3625C7.9502 11.6125 6.6377 12.0375 5.4502 12.6625C5.5502 11.975 5.68769 11.3125 5.85019 10.6875C5.98769 10.15 6.1252 9.65 6.2877 9.15C8.0502 3.7125 11.2627 0.6625 12.0127 0C12.7627 0.6625 15.9877 3.7125 17.7252 9.15C17.8877 9.6375 18.0252 10.15 18.1627 10.6875C18.3127 11.325 18.4502 11.975 18.5627 12.675H18.5752Z" fill="#387546"/>
<path d="M21.0746 14.4501C20.3371 13.7376 19.4871 13.1501 18.5746 12.6751C17.3871 12.0501 16.0871 11.6126 14.7246 11.3626C14.8496 11.2376 14.9746 11.1126 15.1121 11.0001C15.9871 10.2001 16.8871 9.60006 17.7371 9.16256C20.2996 7.83756 22.5371 7.90006 23.0371 7.92506C23.0746 8.51256 23.1496 11.4126 21.0746 14.4501Z" fill="#387546"/>
<path d="M9.31212 11.3625C7.96212 11.6125 6.64962 12.0375 5.46212 12.6625C4.54962 13.1375 3.69962 13.7375 2.96212 14.45C0.899617 11.4125 0.962117 8.51252 0.999617 7.92502C1.49962 7.88752 3.73712 7.83752 6.29962 9.16252C7.16212 9.60002 8.04962 10.2 8.92462 11C9.04962 11.1125 9.18712 11.2375 9.31212 11.3625Z" fill="#387546"/>
<path d="M15.0127 19.8624C13.9377 19.8624 13.0752 20.7374 13.0752 21.7999C13.0752 22.8624 13.9502 23.7374 15.0127 23.7374C16.0752 23.7374 16.9502 22.8624 16.9502 21.7999C16.9502 20.7374 16.0752 19.8624 15.0127 19.8624Z" fill="#3E2723"/>
<path d="M9.02539 19.8624C7.95039 19.8624 7.08789 20.7374 7.08789 21.7999C7.08789 22.8624 7.96289 23.7374 9.02539 23.7374C10.0879 23.7374 10.9629 22.8624 10.9629 21.7999C10.9629 20.7374 10.0879 19.8624 9.02539 19.8624Z" fill="#3E2723"/>
<path d="M1.35 28.9249C1.95 28.1874 2.725 27.5125 3.6625 26.9125C3.2625 25.9875 3.025 24.9875 2.975 23.9625C2.975 23.7625 2.9625 23.5625 2.9625 23.375C2.9625 23.2875 2.9625 23.1874 2.9625 23.0999C2.9625 22.6874 3.05 22.2624 3.1625 21.8249C3.825 19.3499 5.9625 16.95 8.5 16.625C9.5875 16.4875 10.8 16.4125 12 16.4375C13.2125 16.425 14.4125 16.4875 15.5 16.625C18.0375 16.9625 20.175 19.3624 20.8375 21.8249C20.95 22.2624 21.025 22.6874 21.0375 23.0999C21.0375 23.1874 21.0375 23.2875 21.0375 23.375C21.0375 23.575 21.0375 23.775 21.025 23.9625C20.975 24.9749 20.75 25.95 20.3625 26.8624C21.3 27.4499 22.0875 28.1124 22.7 28.8499C23.45 27.4 23.9125 25.7999 24 24.1249C24.0125 23.8749 24.025 23.625 24.025 23.375C24.025 23.2625 24.025 23.15 24.025 23.0375C23.875 16.1375 17.9625 12.7 12.025 12.7C12.025 12.7 12.0125 12.7 12 12.7C12 12.7 11.9875 12.7 11.975 12.7C6.075 12.7 0.15 16.15 0 23.0375C0 23.15 0 23.2625 0 23.375C0 23.625 0 23.8749 0.025 24.1249C0.1125 25.8249 0.5875 27.4624 1.3625 28.9249H1.35Z" fill="#FB8C00"/>
<path d="M16.175 31.5625C14.825 32.65 13.625 33.9 12.6125 35.2875C12.4 35.575 12.2 35.8625 12 36.15C11.8 35.85 11.6 35.5625 11.3875 35.2875C10.375 33.9125 9.175 32.6625 7.8375 31.575C6.575 31.8 5.4125 32.25 4.4375 32.7125C4.65 32.8875 4.875 33.0625 5.1 33.2125C8.2875 35.475 11.2375 39.0626 12 40C12.75 39.0626 15.7125 35.475 18.9 33.2125C19.1375 33.0375 19.3625 32.8625 19.5875 32.675C18.6125 32.2125 17.4375 31.775 16.175 31.55V31.5625Z" fill="#FB8C00"/>
<path d="M8.2248 26.3C4.9748 27.225 0.987305 29.1875 0.987305 33.3C0.987305 33.3 4.9873 30.15 9.4998 30.15C10.8873 30.15 11.6873 29.0625 12.0248 28.6625C12.3623 29.0625 13.1498 30.15 14.5498 30.15C19.0623 30.15 23.0623 33.3 23.0623 33.3C23.0623 29.1875 19.0748 27.225 15.8248 26.3C13.3373 25.5875 10.7123 25.5875 8.2373 26.3H8.2248Z" fill="#3E2723"/>
</svg>
